<svg width="148" height="28" viewBox="0 0 148 28" fill="none" xmlns="http://www.w3.org/2000/svg">
<path d="M9.79029 0.0351334C4.37067 0.0351334 1.43358 4.25094 1.43358 4.25094L3.00702 6.28858C3.00702 6.28858 4.72032 3.58344 7.16789 3.58344C9.30077 3.58344 10.9092 4.67252 10.9092 7.06148V8.8532H9.19588C4.37066 8.8532 0 12.4718 0 15.8093C0 18.7604 2.30771 21.0088 4.82521 21.0088C7.97209 21.0088 9.93015 19.463 10.9092 18.3388V20.5169H15.4547V7.06148C15.4547 2.74028 13.7763 0.0351334 9.79029 0.0351334ZM7.8672 17.7415C6.18886 17.7415 4.3357 15.8093 4.3357 14.3689C4.3357 12.9285 4.86018 12.0151 5.80424 12.0151H10.9092V16.5119C10.1399 17.1443 8.91616 17.7415 7.8672 17.7415Z" fill="#292929"/>
<path d="M29.773 0.0351334C27.0806 0.0351334 24.9478 2.14304 23.689 3.79423V0.562109H19.1435V20.5169H23.689V6.92095C23.9338 6.21832 24.8778 4.11041 27.1506 4.11041C27.9897 4.11041 28.759 4.18068 29.3534 4.46173L32.1156 0.421582C31.4513 0.175659 30.6821 0.0351334 29.773 0.0351334Z" fill="#292929"/>
<path d="M43.9708 0.0351334C41.2785 0.0351334 39.1456 2.14304 37.8868 3.79423V0.562109H33.3413V20.5169H37.8868V6.92095C38.1316 6.21832 39.0757 4.11041 41.3484 4.11041C42.1876 4.11041 42.9568 4.18068 43.5512 4.46173L46.3135 0.421582C45.6491 0.175659 44.8799 0.0351334 43.9708 0.0351334Z" fill="#292929"/>
<path d="M54.8764 0.0351334C49.4568 0.0351334 46.5197 4.25094 46.5197 4.25094L48.0932 6.28858C48.0932 6.28858 49.8065 3.58344 52.254 3.58344C54.3869 3.58344 55.9953 4.67252 55.9953 7.06148V8.8532H54.282C49.4568 8.8532 45.0861 12.4718 45.0861 15.8093C45.0861 18.7604 47.3938 21.0088 49.9113 21.0088C53.0582 21.0088 55.0163 19.463 55.9953 18.3388V20.5169H60.5408V7.06148C60.5408 2.74028 58.8625 0.0351334 54.8764 0.0351334ZM52.9533 17.7415C51.275 17.7415 49.4218 15.8093 49.4218 14.3689C49.4218 12.9285 49.9463 12.0151 50.8904 12.0151H55.9953V16.5119C55.2261 17.1443 54.0023 17.7415 52.9533 17.7415Z" fill="#292929"/>
<path d="M77.3848 0.562109L72.2799 14.2284L65.6365 0.562109H61.091L70.3568 19.4981L67.1749 28H70.6715L80.8813 0.562109H77.3848Z" fill="#292929"/>
<path d="M93.2432 6.14806L95.9705 2.45922C94.502 0.948557 92.404 0.0702647 89.9565 0.0702647C85.0613 0.0702647 80.8655 4.28607 80.8655 10.6098C80.8655 16.5822 83.8725 21.0088 88.9774 21.0088C92.0544 21.0088 94.467 20.1656 95.9006 18.3388L93.1383 15.8444C92.6488 16.6876 90.8656 17.4956 89.6068 17.4956C88.1383 17.4956 84.5019 16.1957 84.5019 9.59097C84.5019 5.51568 86.1103 3.96989 87.7537 3.96989C90.0963 3.96989 92.0194 4.60226 93.2432 6.14806Z" fill="#292929"/>
<path d="M107.167 0.0351334C101.748 0.0351334 98.8106 4.25094 98.8106 4.25094L100.384 6.28858C100.384 6.28858 102.097 3.58344 104.545 3.58344C106.678 3.58344 108.286 4.67252 108.286 7.06148V8.8532H106.573C101.748 8.8532 97.377 12.4718 97.377 15.8093C97.377 18.7604 99.6848 21.0088 102.202 21.0088C105.349 21.0088 107.307 19.463 108.286 18.3388V20.5169H112.832V7.06148C112.832 2.74028 111.153 0.0351334 107.167 0.0351334ZM105.244 17.7415C103.566 17.7415 101.713 15.8093 101.713 14.3689C101.713 12.9285 102.237 12.0151 103.181 12.0151H108.286V16.5119C107.517 17.1443 106.293 17.7415 105.244 17.7415Z" fill="#292929"/>
<path d="M128.995 1.72146C127.666 0.843163 126.128 0 123.715 0C118.226 0 115.743 4.39147 115.743 7.69385C115.743 12.4015 125.463 10.7854 125.463 15.7039C125.463 17.8821 119.764 16.5119 117.981 14.8959L115.463 17.9523C116.442 19.4279 118.89 21.079 122.177 21.079C125.533 21.079 128.995 17.4253 128.995 14.0878C128.995 6.46424 119.135 8.39649 119.135 5.05897C119.135 3.19699 124.484 3.33752 126.408 4.74279L128.995 1.72146Z" fill="#292929"/>
<path d="M141.951 17.3199C137.475 17.3902 135.552 15.6688 134.923 11.734H145.273L148 8.7478C148 3.47804 144.084 0.0702647 139.678 0.0702647C135.133 0.0702647 130.937 4.63739 130.937 10.6098C130.937 16.5822 133.979 21.0088 140.273 21.0088C143.35 21.0088 145.552 19.9197 146.986 18.0928L144.538 15.9498C144.049 16.793 143.21 17.2848 141.951 17.3199ZM138.035 3.47804C141.566 3.47804 143.909 5.51568 144.678 8.7478H134.678V7.93977C134.678 5.16437 135.937 3.47804 138.035 3.47804Z" fill="#292929"/>
</svg>
